<svg width="95" height="103" viewBox="0 0 95 103" fill="none" xmlns="http://www.w3.org/2000/svg">
<path d="M64.7334 23.9726C64.6627 26.5267 64.1114 29.0285 62.9476 31.312C61.6 33.9752 59.4938 35.9454 57.43 38.02C53.3872 42.0932 49.3491 46.1616 45.3063 50.2348V45.1647C49.4433 40.9965 53.6557 36.7477 57.7975 32.5795C59.5126 30.8467 61.2183 29.133 62.4575 27.0014C63.5601 25.1167 64.1397 23.1608 64.4931 21.0673C64.4177 20.583 64.314 20.0988 64.1915 19.6193C63.8947 18.48 63.4753 17.3691 62.9476 16.3199C58.6598 7.79373 48.0863 3.36922 39.4353 7.97413C35.1663 10.2386 32.047 14.3878 31.0434 19.1446C30.9774 19.4437 30.9303 19.7475 30.8879 20.0513C31.0481 21.0673 31.312 22.0689 31.6559 23.0374C32.4758 25.3351 33.814 27.3575 35.4914 29.1045C38.606 32.3517 42.154 35.8837 45.3063 39.0881V44.2959C43.2425 42.1976 40.8206 39.7432 38.7568 37.6449C35.9532 34.7918 33.0507 32.138 31.6512 28.25C30.9256 26.2371 30.7136 24.1863 30.6617 22.0879C30.657 21.9218 30.6146 21.7366 30.6052 21.5705C30.5486 20.7824 30.5958 19.1493 30.6476 18.2331C30.6712 16.5431 30.7795 14.853 31.2036 13.2009C32.5559 7.98837 36.4715 3.66831 41.4991 1.83584C51.5966 -1.84334 63.1361 5.79986 64.5685 16.3722C64.9124 18.8598 64.8041 21.4708 64.7334 23.9726Z" fill="#751B74"/>
<path d="M30.657 79.5496C30.7277 76.9955 31.279 74.4937 32.4428 72.2102C33.7904 69.547 35.8966 67.5768 37.9604 65.5022C42.0032 61.429 46.0413 57.3606 50.0841 53.2874V58.4952C45.9471 62.6633 41.8101 66.8362 37.6683 71.0044C35.9532 72.7372 34.1721 74.3892 32.9329 76.5208C31.8303 78.4055 31.2507 80.3614 30.8973 82.4549C30.9727 82.9392 31.0764 83.4234 31.1989 83.9029C31.4957 85.0422 31.9151 86.1531 32.4428 87.2023C36.7306 95.7285 47.3041 100.153 55.9551 95.5481C60.2241 93.2789 63.3481 89.1297 64.3517 84.3729C64.4177 84.0738 64.4648 83.77 64.5072 83.4661C64.347 82.4502 64.0832 81.4485 63.7392 80.4801C62.9193 78.1824 61.5811 76.16 59.9037 74.413C56.7892 71.1658 53.2411 67.6338 50.0888 64.4293V59.2215C52.1527 61.3199 54.5746 63.7742 56.6384 65.8725C59.4419 68.7257 62.3445 71.3794 63.7439 75.2675C64.4695 77.2804 64.6816 79.3312 64.7334 81.4295C64.7381 81.5957 64.7805 81.7808 64.7899 81.947C64.8465 82.735 64.7994 84.3681 64.7475 85.2844C64.724 86.9744 64.6156 88.6645 64.1915 90.3165C62.8392 95.5291 58.9236 99.8492 53.8961 101.682C43.7985 105.361 32.2591 97.7176 30.8266 87.1453C30.478 84.6672 30.5863 82.0514 30.657 79.5496Z" fill="#751B74"/>
<path d="M43.676 51.1463V56.3921C41.8713 54.5739 40.2928 52.9835 38.4835 51.1653C38.361 51.0419 38.2479 50.9279 38.1254 50.8045C35.9532 48.616 33.7763 46.4227 31.6041 44.2342C29.7995 42.416 28.0702 40.5693 25.7943 39.316C21.3934 36.8806 15.9795 36.6385 11.376 38.6419C7.55463 40.3129 3.94532 43.7975 2.05585 47.5431C1.45273 48.7394 0.99568 50.0165 0.694119 51.3267C0.609305 51.697 0.538627 52.0673 0.486796 52.4423C0.835476 54.6451 1.62707 56.7814 2.80976 58.6613C8.40748 67.5768 20.8987 68.8111 28.3199 61.5287C31.6324 58.2816 34.86 54.9442 38.1254 51.6495L38.1301 56.6912C36.038 58.799 33.8281 61.0255 31.736 63.1333C29.2293 65.6636 26.9676 68.4741 23.6928 70.0217C13.7319 74.7215 1.7166 68.0468 0.401982 57.0283C-0.154021 52.3664 -0.135173 46.85 1.94748 42.5632C3.92647 38.4852 7.8609 34.7585 12.0733 33.1492C16.9407 31.2883 22.5337 31.8912 26.8875 34.768C28.9984 36.159 30.723 38.1292 32.4947 39.9189C34.4642 41.908 36.4385 43.8924 38.4128 45.8815C38.4363 45.9053 38.4599 45.9338 38.4835 45.9575C40.2928 47.7757 41.8713 49.3281 43.676 51.1463Z" fill="#751B74"/>
<path d="M50.8286 52.1765L50.8804 46.9687C52.6851 48.7869 54.3484 50.477 56.153 52.2952C56.2755 52.4186 56.3886 52.5325 56.5111 52.656C58.6833 54.8445 60.8602 57.0378 63.0324 59.2263C64.837 61.0445 66.5663 62.8912 68.8421 64.1445C73.2431 66.5799 78.657 66.822 83.2605 64.8186C87.0819 63.1476 90.6912 59.663 92.5806 55.9174C93.1838 54.7211 93.6408 53.444 93.9424 52.1338C94.0272 51.7635 94.0979 51.3932 94.1497 51.0181C93.801 48.8154 93.0094 46.6791 91.8267 44.7992C86.229 35.8837 73.6671 34.5877 66.2459 41.8701C62.9334 45.1172 59.7812 48.3929 56.5158 51.6875L56.5064 46.6031C58.5985 44.4953 60.6953 42.3828 62.7874 40.2749C65.2941 37.7446 67.6689 34.9864 70.9389 33.4435C80.8999 28.7437 92.9152 35.4184 94.2298 46.437C94.7858 51.0989 94.767 56.6152 92.6843 60.9021C90.7053 64.98 86.7709 68.7067 82.5585 70.316C77.6911 72.177 72.0981 71.5741 67.7443 68.6972C65.6334 67.3062 63.9088 65.3361 62.1371 63.5463C60.1676 61.5572 58.1933 59.5728 56.219 57.5837C56.1954 57.56 56.1719 57.5315 56.1483 57.5077C54.3437 55.6848 52.638 53.9947 50.8286 52.1765Z" fill="#751B74"/>
</svg>
